<svg width="44" height="40" viewBox="0 0 44 40" fill="none" xmlns="http://www.w3.org/2000/svg">
<g clip-path="url(#clip0_209_366)">
<path d="M0.059082 1.55527C3.44864 1.55977 4.88404 3.82967 6.408 6.2694L18.8871 26.8522C19.4753 27.8794 20.0555 29.121 20.0378 30.2836C19.9918 33.3113 15.9053 34.4194 13.4601 34.5356C11.6704 34.6204 9.90203 34.2167 8.31022 33.5285L7.31638 34.7592C7.89562 37.1336 10.1811 40.0174 13.3217 39.9958C18.7763 39.958 21.6411 35.1598 23.8338 31.2523L27.8959 24.0138L16.1049 4.56564C15.0158 2.82598 16.8036 1.56114 18.7036 1.55008L19.1369 -0.0615234H0.494115L0.059082 1.55527ZM38.9257 4.11813C39.8195 2.41015 41.6144 1.56346 43.4644 1.55254L43.8985 -0.0615234H30.4947L30.0603 1.55335C32.3283 1.56414 35.3857 2.4111 35.5894 4.11813H38.9257Z" fill="url(#paint0_linear_209_366)"/>
</g>
<defs>
<linearGradient id="paint0_linear_209_366" x1="14.9524" y1="-0.0615234" x2="14.9524" y2="40.8121" gradientUnits="userSpaceOnUse">
<stop stop-color="#E5097F"/>
<stop offset="0.478431" stop-color="#E31E24"/>
<stop offset="1" stop-color="#FFED00"/>
</linearGradient>
<clipPath id="clip0_209_366">
<rect width="44" height="40" fill="white"/>
</clipPath>
</defs>
</svg>
