<svg width="50" height="50" viewBox="0 0 50 50" fill="none" xmlns="http://www.w3.org/2000/svg">
<rect width="50" height="50" rx="25" fill="#2688EB" fill-opacity="0.08"/>
<path fill-rule="evenodd" clip-rule="evenodd" d="M25 26.25C25.6904 26.25 26.25 26.8096 26.25 27.5V30C26.25 30.6904 25.6904 31.25 25 31.25C24.3096 31.25 23.75 30.6904 23.75 30V27.5C23.75 26.8096 24.3096 26.25 25 26.25Z" fill="#2688EB"/>
<path fill-rule="evenodd" clip-rule="evenodd" d="M33.4632 20.6563C32.7401 20.2879 31.9254 20.1905 31.125 20.1527V18.75C31.125 15.3673 28.3827 12.625 25 12.625C21.6173 12.625 18.875 15.3673 18.875 18.75V20.1527C18.0746 20.1905 17.2599 20.2879 16.5368 20.6563C15.6195 21.1237 14.8737 21.8695 14.4063 22.7868C14.1077 23.3729 13.9866 24.0005 13.9298 24.6954C13.875 25.3667 13.875 26.1928 13.875 27.2029V30.2971C13.875 31.3072 13.875 32.1333 13.9298 32.8046C13.9866 33.4995 14.1077 34.1271 14.4063 34.7132C14.8737 35.6305 15.6195 36.3763 16.5368 36.8437C17.1229 37.1423 17.7505 37.2634 18.4454 37.3202C19.1167 37.375 19.9428 37.375 20.9529 37.375H29.0471C30.0572 37.375 30.8833 37.375 31.5546 37.3202C32.2495 37.2634 32.8771 37.1423 33.4632 36.8437C34.3805 36.3763 35.1263 35.6305 35.5937 34.7132C35.8923 34.1271 36.0134 33.4995 36.0702 32.8046C36.125 32.1333 36.125 31.3072 36.125 30.2971V27.2029C36.125 26.1928 36.125 25.3667 36.0702 24.6954C36.0134 24.0005 35.8923 23.3729 35.5937 22.7868C35.1263 21.8695 34.3805 21.1237 33.4632 20.6563ZM18.6286 22.4224C18.0729 22.4678 17.7743 22.551 17.5583 22.6611C17.0644 22.9128 16.6628 23.3143 16.4111 23.8083C16.301 24.0243 16.2178 24.3229 16.1724 24.8786C16.1259 25.4475 16.125 26.1813 16.125 27.25V30.25C16.125 31.3187 16.1259 32.0525 16.1724 32.6214C16.2178 33.1771 16.301 33.4757 16.4111 33.6917C16.6628 34.1857 17.0644 34.5872 17.5583 34.8389C17.7743 34.949 18.0729 35.0322 18.6286 35.0776C19.1975 35.1241 19.9313 35.125 21 35.125H29C30.0687 35.125 30.8025 35.1241 31.3714 35.0776C31.9271 35.0322 32.2257 34.949 32.4417 34.8389C32.9357 34.5872 33.3372 34.1857 33.5889 33.6917C33.699 33.4757 33.7822 33.1771 33.8276 32.6214C33.8741 32.0525 33.875 31.3187 33.875 30.25V27.25C33.875 26.1813 33.8741 25.4475 33.8276 24.8786C33.7822 24.3229 33.699 24.0243 33.5889 23.8083C33.3372 23.3143 32.9357 22.9128 32.4417 22.6611C32.2257 22.551 31.9271 22.4678 31.3714 22.4224C30.8025 22.3759 30.0687 22.375 29 22.375H21C19.9313 22.375 19.1975 22.3759 18.6286 22.4224ZM28.875 18.75C28.875 16.6099 27.1401 14.875 25 14.875C22.8599 14.875 21.125 16.6099 21.125 18.75V20.125H28.875V18.75Z" fill="#2688EB"/>
<path fill-rule="evenodd" clip-rule="evenodd" d="M26.25 27.5C26.25 26.8096 25.6904 26.25 25 26.25C24.3096 26.25 23.75 26.8096 23.75 27.5V30C23.75 30.6904 24.3096 31.25 25 31.25C25.6904 31.25 26.25 30.6904 26.25 30V27.5Z" fill="#2688EB"/>
</svg>
