<svg width="50" height="50" viewBox="0 0 50 50" fill="none" xmlns="http://www.w3.org/2000/svg">
<rect width="50" height="50" rx="25" fill="#2688EB" fill-opacity="0.08"/>
<path fill-rule="evenodd" clip-rule="evenodd" d="M30 16C27.7908 16 26 17.7909 26 20C26 22.2091 27.7908 24 30 24C32.2091 24 34 22.2091 34 20C34 17.7909 32.2091 16 30 16ZM23.75 20C23.75 16.5482 26.5482 13.75 30 13.75C33.4518 13.75 36.25 16.5482 36.25 20C36.25 23.4518 33.4518 26.25 30 26.25C26.5482 26.25 23.75 23.4518 23.75 20Z" fill="#2688EB"/>
<path fill-rule="evenodd" clip-rule="evenodd" d="M22.1042 23.7676C22.578 24.1699 22.6357 24.8799 22.2331 25.3534L16.2303 32.4141C15.9056 32.796 15.9286 33.363 16.2832 33.7174C16.6379 34.072 17.2057 34.0948 17.5877 33.7699L24.6449 27.7682C25.1184 27.3655 25.8288 27.4227 26.2316 27.8959C26.6345 28.3691 26.5773 29.0791 26.1038 29.4818L19.0466 35.4835C17.771 36.5683 15.8757 36.4921 14.6913 35.3084C13.5076 34.1253 13.4308 32.2322 14.5148 30.9571L20.5176 23.8964C20.9201 23.423 21.6305 23.3653 22.1042 23.7676Z" fill="#2688EB"/>
</svg>
