<svg width="50" height="50" viewBox="0 0 50 50" fill="none" xmlns="http://www.w3.org/2000/svg">
<rect width="50" height="50" rx="25" fill="white"/>
<path fill-rule="evenodd" clip-rule="evenodd" d="M20.6248 20.125C20.6248 17.7088 22.5835 15.75 24.9998 15.75C27.416 15.75 29.3748 17.7088 29.3748 20.125C29.3748 22.5412 27.416 24.5 24.9998 24.5C22.5835 24.5 20.6248 22.5412 20.6248 20.125ZM24.9998 22.25C23.8262 22.25 22.8748 21.2986 22.8748 20.125C22.8748 18.9514 23.8262 18 24.9998 18C26.1734 18 27.1248 18.9514 27.1248 20.125C27.1248 21.2986 26.1734 22.25 24.9998 22.25Z" fill="#2688EB"/>
<path fill-rule="evenodd" clip-rule="evenodd" d="M25.0002 26.3751C23.1202 26.3751 21.3433 26.8171 19.9976 27.6438C18.6503 28.4716 17.6252 29.7717 17.6252 31.4434C17.6252 32.4553 17.9733 33.3589 18.6892 33.9969C19.387 34.6187 20.3066 34.8751 21.2502 34.8751H28.7502C29.6939 34.8751 30.6135 34.6187 31.3112 33.9969C32.0271 33.3589 32.3752 32.4553 32.3752 31.4434C32.3752 29.7717 31.3502 28.4716 30.0028 27.6438C28.6572 26.8171 26.8803 26.3751 25.0002 26.3751ZM19.8752 31.4434C19.8752 30.7968 20.2569 30.1252 21.1754 29.5609C22.0956 28.9956 23.4437 28.6251 25.0002 28.6251C26.5567 28.6251 27.9048 28.9956 28.825 29.5609C29.7435 30.1252 30.1252 30.7968 30.1252 31.4434C30.1252 31.9257 29.9733 32.1754 29.8142 32.3172C29.637 32.4752 29.3066 32.6251 28.7502 32.6251H21.2502C20.6939 32.6251 20.3635 32.4752 20.1862 32.3172C20.0271 32.1754 19.8752 31.9257 19.8752 31.4434Z" fill="#2688EB"/>
<path d="M17.379 27.125C17.379 26.5037 16.8753 26 16.254 26C13.7456 26 11.3165 27.595 11.3165 30.1965C11.3165 31.7752 12.4042 33.625 14.5754 33.625C15.1967 33.625 15.7004 33.1214 15.7004 32.5C15.7004 31.8787 15.1967 31.375 14.5754 31.375C14.2355 31.375 14.0131 31.2447 13.8562 31.0575C13.6814 30.849 13.5665 30.5366 13.5665 30.1965C13.5665 29.2827 14.4906 28.25 16.254 28.25C16.8753 28.25 17.379 27.7464 17.379 27.125Z" fill="#2688EB"/>
<path d="M17.8929 16.8238C18.508 16.736 19.0778 17.1633 19.1657 17.7784C19.2536 18.3935 18.8262 18.9633 18.2111 19.0512C17.4512 19.1598 16.8751 19.8095 16.8751 20.5831C16.8751 21.4321 17.5688 22.1309 18.4376 22.1309C19.0589 22.1309 19.5626 22.6346 19.5626 23.2559C19.5626 23.8773 19.0589 24.3809 18.4376 24.3809C16.3378 24.3809 14.6251 22.6864 14.6251 20.5831C14.6251 18.6647 16.0496 17.0872 17.8929 16.8238Z" fill="#2688EB"/>
<path d="M32.6205 27.125C32.6205 26.5037 33.1242 26 33.7455 26C36.2539 26 38.683 27.595 38.683 30.1965C38.683 31.7752 37.5953 33.625 35.4241 33.625C34.8028 33.625 34.2991 33.1214 34.2991 32.5C34.2991 31.8787 34.8028 31.375 35.4241 31.375C35.764 31.375 35.9864 31.2447 36.1433 31.0575C36.3181 30.849 36.433 30.5366 36.433 30.1965C36.433 29.2827 35.5089 28.25 33.7455 28.25C33.1242 28.25 32.6205 27.7464 32.6205 27.125Z" fill="#2688EB"/>
<path d="M32.1072 16.8238C31.4921 16.736 30.9223 17.1633 30.8344 17.7784C30.7465 18.3935 31.1739 18.9633 31.789 19.0512C32.5489 19.1598 33.1251 19.8095 33.1251 20.5831C33.1251 21.4321 32.4313 22.1309 31.5626 22.1309C30.9412 22.1309 30.4376 22.6346 30.4376 23.2559C30.4376 23.8773 30.9412 24.3809 31.5626 24.3809C33.6623 24.3809 35.3751 22.6864 35.3751 20.5831C35.3751 18.6647 33.9505 17.0872 32.1072 16.8238Z" fill="#2688EB"/>
</svg>
